<?xml version="1.0" encoding="UTF-8" standalone="no"?>
<svg width="588px" height="68px" viewBox="0 0 588 68" version="1.1" xmlns="http://www.w3.org/2000/svg" xmlns:xlink="http://www.w3.org/1999/xlink">
    <!-- Generator: Sketch 39.1 (31720) - http://www.bohemiancoding.com/sketch -->
    <title>Slice 1</title>
    <desc>Created with Sketch.</desc>
    <defs></defs>
    <g id="Page-1" stroke="none" stroke-width="1" fill="none" fill-rule="evenodd">
        <path d="M45.4626563,44.6855169 C48.0524534,41.8363395 49.3483534,38.2751181 49.3483534,33.9998498 C49.3483534,29.725583 48.0524534,26.1643616 45.4626563,23.3141827 C42.8718577,20.4640038 39.5359667,19.0409173 35.4569862,19.0409173 C31.3770042,19.0409173 28.0411132,20.4640038 25.4513161,23.3141827 C22.861519,26.1643616 21.565619,29.725583 21.565619,33.9998498 C21.565619,38.2751181 22.861519,41.8363395 25.4513161,44.6855169 C28.0411132,47.5356957 31.3770042,48.9607852 35.4569862,48.9607852 C39.5359667,48.9607852 42.8718577,47.5356957 45.4626563,44.6855169 M60.6649455,9.86045717 C67.4969625,16.4330938 70.9139724,24.4798918 70.9139724,33.9998498 C70.9139724,43.5198077 67.4969625,51.5666057 60.6649455,58.1402439 C53.8319271,64.7128805 45.4296078,67.9996996 35.4569862,67.9996996 C25.4843646,67.9996996 17.0810438,64.7128805 10.2490269,58.1402439 C3.41600847,51.5666057 5.68434189e-14,43.5198077 5.68434189e-14,33.9998498 C5.68434189e-14,24.4798918 3.41600847,16.4330938 10.2490269,9.86045717 C17.0810438,3.28681906 25.4843646,0 35.4569862,0 C45.4296078,0 53.8319271,3.28681906 60.6649455,9.86045717 M141.452995,66.5427634 L123.870216,66.5427634 L97.0589055,37.2057502 L97.0589055,66.5427634 L75.5904289,66.5427634 L75.5904289,1.45733671 L93.1732084,1.45733671 L119.984518,32.1543439 L119.984518,1.45733671 L141.452995,1.45733671 L141.452995,66.5427634 Z M200.13964,66.5427634 L147.099874,66.5427634 L147.099874,1.45733671 L199.653928,1.45733671 L199.653928,19.0401162 L168.569352,19.0401162 L168.569352,26.2286558 L197.031082,26.2286558 L197.031082,41.7714443 L168.569352,41.7714443 L168.569352,48.959984 L200.13964,48.959984 L200.13964,66.5427634 Z M233.308371,48.8625411 C237.971208,48.8625411 241.742738,47.4705001 244.625965,44.6854167 C247.507189,41.9013348 248.948302,38.3391119 248.948302,33.9997496 C248.948302,29.6603874 247.507189,26.099166 244.625965,23.3140826 C241.742738,20.5300006 237.971208,19.1369582 233.308371,19.1369582 L227.479826,19.1369582 L227.479826,48.8625411 L233.308371,48.8625411 Z M235.250218,1.45703627 C245.871791,1.45703627 254.420325,4.46845154 260.896821,10.4922835 C267.372315,16.5141126 270.611064,24.3496008 270.611064,33.9997496 C270.611064,43.6498985 267.372315,51.4853867 260.896821,57.5082172 C254.420325,63.5310477 245.871791,66.542463 235.250218,66.542463 L206.010348,66.542463 L206.010348,1.45703627 L235.250218,1.45703627 Z M301.687928,23.5089683 L295.664096,41.1878887 L307.710758,41.1878887 L301.687928,23.5089683 Z M316.25829,66.5430639 L313.635445,58.6735257 L289.641265,58.6735257 L286.922279,66.5430639 L263.995664,66.5430639 L289.253697,1.45663568 L313.926872,1.45663568 L339.183903,66.5430639 L316.25829,66.5430639 Z M367.92955,47.0171354 L367.92955,66.5427634 L345.392506,66.5427634 L345.392506,47.0171354 L321.398327,1.45733671 L344.809652,1.45733671 L357.243883,25.7429437 L369.482827,1.45733671 L392.894152,1.45733671 L367.92955,47.0171354 Z M429.830908,44.6855169 C432.420705,41.8363395 433.715604,38.2751181 433.715604,33.9998498 C433.715604,29.725583 432.420705,26.1643616 429.830908,23.3141827 C427.239108,20.4640038 423.904218,19.0409173 419.824236,19.0409173 C415.744254,19.0409173 412.409365,20.4640038 409.819568,23.3141827 C407.227768,26.1643616 405.932869,29.725583 405.932869,33.9998498 C405.932869,38.2751181 407.227768,41.8363395 409.819568,44.6855169 C412.409365,47.5356957 415.744254,48.9607852 419.824236,48.9607852 C423.904218,48.9607852 427.239108,47.5356957 429.830908,44.6855169 M445.033197,9.86045717 C451.865214,16.4330938 455.282224,24.4798918 455.282224,33.9998498 C455.282224,43.5198077 451.865214,51.5666057 445.033197,58.1402439 C438.200179,64.7128805 429.79786,67.9996996 419.824236,67.9996996 C409.850613,67.9996996 401.447293,64.7128805 394.615276,58.1402439 C387.783259,51.5666057 384.368252,43.5198077 384.368252,33.9998498 C384.368252,24.4798918 387.783259,16.4330938 394.615276,9.86045717 C401.447293,3.28681906 409.850613,0 419.824236,0 C429.79786,0 438.200179,3.28681906 445.033197,9.86045717 M521.322451,36.9144231 C521.322451,46.498475 518.537367,54.0765858 512.968202,59.6457512 C507.398035,65.215918 500.016212,68 490.818727,68 C481.298769,68 473.689613,65.215918 467.990256,59.6457512 C462.292903,54.0765858 459.442724,46.498475 459.442724,36.9144231 L459.442724,1.45743686 L481.007342,1.45743686 L481.007342,36.9144231 C481.007342,40.8001202 481.881623,43.778487 483.630187,45.8515264 C485.378751,47.9235644 487.775265,48.9600841 490.818727,48.9600841 C493.539716,48.9600841 495.708897,47.9235644 497.328271,45.8515264 C498.947645,43.778487 499.75583,40.8001202 499.75583,36.9144231 L499.75583,1.45743686 L521.322451,1.45743686 L521.322451,36.9144231 Z M567.284339,19.525628 L567.284339,66.5425631 L545.815862,66.5425631 L545.815862,19.525628 L525.998807,19.525628 L525.998807,1.45713642 L587.100393,1.45713642 L587.100393,19.525628 L567.284339,19.525628 Z" id="Combined-Shape" fill="#FFFFFF"></path>
    </g>
</svg>